<svg xmlns="http://www.w3.org/2000/svg" version="1.1" xmlns:xlink="http://www.w3.org/1999/xlink" xmlns:svgjs="http://svgjs.dev/svgjs" width="1440" height="560" preserveAspectRatio="none" viewBox="0 0 1440 560"><g mask="url(&quot;#SvgjsMask1063&quot;)" fill="none"><rect width="1440" height="560" x="0" y="0" fill="rgba(21, 67, 96, 1)"></rect><path d="M0,620.16C119.346,635.999,240.569,596.966,343.23,534.077C447.238,470.363,533.819,377.767,579.985,264.87C625.193,154.316,626.971,29.749,596.71,-85.794C568.366,-194.015,491.323,-277.746,416.168,-360.612C342.604,-441.724,272.074,-539.041,164.969,-561.832C59.598,-584.254,-43.604,-525.819,-140.678,-479.104C-225.055,-438.499,-298.096,-382.178,-357.966,-310.179C-416.868,-239.345,-459.024,-158.568,-481.507,-69.23C-505.954,27.912,-527.419,131.042,-492.649,224.985C-456.82,321.79,-369.801,385.544,-289.282,450.132C-200.23,521.565,-113.17,605.14,0,620.16" fill="#0f3044"></path><path d="M1440 1169.038C1550.844 1152.0149999999999 1635.3899999999999 1070.938 1725.189 1003.7629999999999 1808.66 941.322 1901.5 885.354 1945.534 790.869 1989.723 696.053 1981.0230000000001 587.888 1967.3400000000001 484.18 1953.5230000000001 379.452 1918.545 282.41 1866.336 190.57799999999997 1803.589 80.209 1750.771-51.17399999999998 1634.279-101.654 1515.136-153.28300000000002 1369.129-134.15599999999995 1253.559-74.96100000000001 1145.093-19.404999999999973 1112.358 114.846 1032.266 206.697 951.829 298.945 804.952 345.158 782.341 465.443 759.752 585.611 867.718 686.975 921.326 796.87 973.366 903.5509999999999 995.912 1031.754 1092.351 1100.953 1190.276 1171.2179999999998 1320.871 1187.3339999999998 1440 1169.038" fill="#1b567c"></path></g><defs><mask id="SvgjsMask1063"><rect width="1440" height="560" fill="#ffffff"></rect></mask></defs></svg>